<svg xmlns="http://www.w3.org/2000/svg" width="327" height="58" fill="none" viewBox="0 0 327 58">
    <path fill="#333" d="M94.011 14.856h10.816c1.29.004 2.573.204 3.803.594 1.027.337 1.963.906 2.734 1.664.54.523.967 1.152 1.253 1.847.286.695.426 1.442.411 2.194.007.767-.113 1.53-.357 2.258-.245.593-.565 1.152-.951 1.664l-1.307 1.189c-.45.285-.928.523-1.426.713l2.139.95c.626.286 1.191.69 1.664 1.19.462.504.861 1.062 1.188 1.663.283.762.443 1.565.476 2.377.031 1.036-.215 2.062-.713 2.971-.468.845-1.118 1.576-1.902 2.14-.845.663-1.815 1.148-2.852 1.426-1.247.297-2.522.457-3.804.475H94.011V14.856zm10.34 11.172c1.462.057 2.908-.315 4.16-1.07.524-.38.948-.882 1.238-1.46.29-.58.436-1.22.426-1.868.03-.575-.086-1.148-.335-1.667-.249-.519-.624-.967-1.091-1.304-1.233-.81-2.685-1.225-4.16-1.188h-7.725v8.676l7.487-.119zm.951 11.529c1.633.112 3.258-.304 4.635-1.189.524-.38.949-.882 1.238-1.46.29-.58.436-1.22.426-1.868.013-.628-.146-1.249-.46-1.793-.314-.545-.772-.993-1.322-1.297-1.494-.92-3.244-1.336-4.992-1.188h-7.963v8.913l8.438-.118zM121.23 14.856h10.934c1.408-.003 2.809.197 4.16.594 1.128.388 2.147 1.04 2.972 1.902.686.596 1.182 1.382 1.426 2.258.379.862.582 1.792.594 2.734 0 .981-.202 1.952-.594 2.852-.245.842-.743 1.59-1.426 2.14-.641.608-1.361 1.128-2.14 1.545l-2.733.831 7.725 10.34h-3.447l-7.369-9.864h-7.25v9.865h-2.852V14.856zm10.697 12.836c.884.006 1.764-.114 2.614-.357l2.021-.95c.605-.43 1.095-1.001 1.426-1.664.332-.664.495-1.398.476-2.14.023-.712-.126-1.42-.437-2.062-.311-.642-.773-1.199-1.346-1.622-1.403-.936-3.07-1.394-4.754-1.307h-7.845v10.22l7.845-.118zM148.446 14.856h2.852V40.17h-2.852V14.856zM171.386 40.528c-1.826.015-3.639-.308-5.348-.95-1.524-.672-2.898-1.642-4.041-2.853-1.152-1.144-2.044-2.522-2.615-4.041-.574-1.642-.856-3.372-.832-5.11-.032-1.713.292-3.412.951-4.993.572-1.526 1.418-2.936 2.496-4.16 1.164-1.186 2.533-2.152 4.041-2.852 1.645-.73 3.429-1.094 5.229-1.07l2.853.238 2.496.594 2.139 1.07 1.902 1.426-1.902 2.258-1.426-1.188-1.783-.95-2.021-.595-2.377-.238c-1.348.022-2.68.305-3.922.832-1.131.546-2.142 1.314-2.971 2.258-.917.942-1.608 2.08-2.021 3.328-.477 1.294-.719 2.663-.713 4.041-.026 1.42.216 2.83.713 4.16.384 1.262 1.078 2.406 2.021 3.328.841.983 1.899 1.756 3.09 2.258 1.322.538 2.733.82 4.16.832 1.393.034 2.775-.25 4.041-.832 1.167-.398 2.254-1.002 3.209-1.783v-6.299h-7.607v-2.496h10.341v10.103c-1.277 1.126-2.721 2.048-4.279 2.733-1.862.689-3.84 1.011-5.824.951zM189.213 14.856h2.852v11.172h14.619V14.856h2.853V40.17h-2.853v-11.41h-14.619v11.41h-2.852V14.856zM223.797 17.47h-8.439v-2.614h19.849v2.615h-8.558v22.7h-2.852v-22.7zM241.031 14.856h2.852v11.172h14.619V14.856h2.853V40.17h-2.853v-11.41h-14.619v11.41h-2.852V14.856zM269.793 14.856h2.853V40.17h-2.853V14.856zM278.471 14.856h3.209l8.914 21.75 9.032-21.75h3.091L291.901 40.29h-2.615l-10.815-25.434zM308.419 14.856h18.304v2.496h-15.451v8.795h13.787v2.496h-13.787v8.914h15.57v2.614h-18.423V14.856z"/>
    <path fill="#A1D2AB" d="M43.263 53.959V35.06l-20.8 12.005v6.893c.001 1.051-.408 2.062-1.14 2.816-.733.755-1.73 1.194-2.782 1.225h28.763c-1.072 0-2.1-.426-2.858-1.184-.757-.758-1.183-1.785-1.183-2.857z"/>
    <path fill="#FEBE2D" d="M22.463 4.041v18.898l20.8-12.005V4.041c0-1.072.425-2.1 1.183-2.857C45.204.426 46.232 0 47.304 0H18.421c1.072 0 2.1.426 2.858 1.184.758.757 1.183 1.785 1.183 2.857z"/>
    <path fill="#5BCBF5" d="M49.324 7.488l-6.062 3.446v24.128l16.52-9.509c.918-.524 2.003-.668 3.025-.4 1.022.266 1.899.922 2.443 1.827L50.75 2.02c.275.45.457.951.534 1.473.077.522.049 1.054-.085 1.564-.133.51-.367.99-.69 1.407-.322.417-.725.766-1.185 1.024z"/>
    <path fill="#15B9A8" d="M65.25 30.901c.34-.574.504-1.235.475-1.901.026-.704-.138-1.402-.475-2.02-.544-.906-1.421-1.562-2.443-1.828-1.022-.267-2.107-.123-3.024.401l-16.52 9.508V53.96c0 1.072.425 2.1 1.183 2.857.758.758 1.785 1.184 2.857 1.184h1.07l1.07-.476.713-.475v-.238l.475-.594L62.16 36.131l2.971-4.992.119-.238z"/>
    <path fill="#89A150" d="M43.262 4.04v6.894l6.062-3.447c.46-.258.863-.606 1.185-1.024.322-.417.557-.895.69-1.406.134-.51.162-1.042.085-1.564s-.259-1.023-.534-1.473c-.128-.321-.332-.606-.594-.832-.751-.677-1.723-1.057-2.734-1.07h-.119c-1.051 0-2.061.41-2.816 1.142-.755.732-1.194 1.73-1.225 2.78z"/>
    <path fill="#F6A7C0" d="M16.402 50.512l6.062-3.446V22.939L6.062 32.447c-.917.524-2.003.668-3.024.401-1.022-.267-1.899-.922-2.443-1.827l14.38 24.959c-.523-.917-.667-2.003-.4-3.025.266-1.021.922-1.898 1.827-2.443z"/>
    <path fill="#A79087" d="M22.463 53.96v-6.894l-6.061 3.446c-.905.545-1.561 1.422-1.828 2.443-.266 1.022-.122 2.108.401 3.025l.595.832h.119c.362.35.79.625 1.259.809.47.183.97.272 1.474.26h.119c1.03-.03 2.011-.453 2.74-1.182.73-.729 1.152-1.71 1.182-2.74z"/>
    <path fill="#F5843C" d="M6.061 32.447l16.402-9.509V4.042c0-1.072-.426-2.1-1.184-2.857C20.522.426 19.494 0 18.422 0h-1.07c-.348.085-.673.247-.95.475l-.714.476c-.118.119-.118.119-.118.238l-.476.594h-.119L3.447 21.75.475 26.742c-.282.596-.444 1.242-.475 1.901.016.715.221 1.412.594 2.02.24.48.572.905.977 1.255.405.349.876.614 1.384.78.509.166 1.045.229 1.579.186.533-.043 1.052-.192 1.527-.437z"/>
</svg>
