<?xml version="1.0" standalone="no"?>
<!DOCTYPE svg PUBLIC "-//W3C//DTD SVG 20010904//EN"
 "http://www.w3.org/TR/2001/REC-SVG-20010904/DTD/svg10.dtd">
<svg version="1.0" xmlns="http://www.w3.org/2000/svg"
 width="594.000000pt" height="594.000000pt" viewBox="0 0 594.000000 594.000000"
 preserveAspectRatio="xMidYMid meet">
<metadata>
Created by potrace 1.11, written by Peter Selinger 2001-2013
</metadata>
<g transform="translate(0.000000,594.000000) scale(0.100000,-0.100000)"
fill="#000000" stroke="none">
<path d="M649 5586 c-2 -3 -17 -7 -32 -10 -144 -26 -283 -100 -394 -212 -46
-45 -83 -87 -83 -93 0 -5 -7 -16 -15 -24 -19 -20 -85 -156 -85 -177 0 -9 -5
-21 -12 -28 -7 -7 -9 -12 -6 -12 3 0 -1 -26 -8 -57 -11 -48 -13 -399 -11
-2018 2 -1078 5 -1971 8 -1985 3 -14 9 -35 13 -47 4 -12 9 -31 11 -43 6 -31
80 -181 107 -215 100 -127 195 -199 353 -267 11 -5 54 -17 95 -28 73 -19 131
-20 2376 -20 1265 0 2304 3 2307 7 4 3 20 8 37 10 72 7 235 78 303 132 151
118 275 317 291 466 1 11 4 25 7 30 3 6 5 56 5 112 -1 57 2 103 5 103 4 0 3
18 -1 40 -4 22 -5 40 -1 40 3 0 5 24 4 52 -1 29 -2 80 -2 113 0 33 -1 69 -1
80 -2 27 -1 51 0 148 0 9 0 25 0 35 0 9 0 41 0 70 0 30 2 58 6 63 3 5 1 9 -4
9 -5 0 -6 19 -3 42 4 24 4 60 0 81 -3 21 -3 40 1 42 5 3 5 20 1 37 -4 18 -5
44 -1 58 4 14 4 34 0 45 -4 11 -4 31 0 45 3 14 4 36 0 50 -4 14 -4 34 0 45 4
11 4 29 0 39 -3 11 -4 36 0 55 3 20 3 48 -1 62 -3 15 -3 32 1 39 4 7 4 25 0
41 -5 15 -7 29 -5 31 2 2 4 22 5 43 0 22 1 54 1 70 0 41 7 187 11 266 3 36 -1
91 -7 122 -6 31 -8 57 -5 57 4 0 4 18 0 40 -4 22 -4 42 0 45 4 3 4 23 0 45 -4
22 -4 43 0 45 4 3 5 20 1 37 -4 18 -5 44 -1 58 4 14 4 34 0 45 -4 11 -4 31 0
45 3 14 4 36 0 50 -4 14 -4 34 0 45 4 11 4 28 1 38 -4 9 -4 45 -1 80 3 34 2
81 -1 105 -3 23 -3 42 0 42 3 0 5 24 4 52 -1 29 -2 80 -2 113 0 33 -1 69 -1
80 -2 27 -1 51 0 148 0 9 0 25 0 35 0 9 0 41 0 70 0 30 2 58 6 63 3 5 1 9 -4
9 -5 0 -6 19 -3 43 4 23 4 59 0 80 -3 21 -3 40 1 42 5 3 5 20 1 37 -4 18 -5
44 -1 58 4 14 4 34 0 45 -4 11 -4 32 1 47 4 14 6 28 4 30 -2 2 -6 42 -9 88 -6
81 -37 211 -59 238 -5 6 -7 12 -4 12 3 0 -12 30 -33 67 -98 167 -260 297 -435
349 -33 10 -67 20 -75 23 -18 6 -4655 13 -4661 7z"/>
</g>
</svg>
